<svg id="Artwork" xmlns="http://www.w3.org/2000/svg" viewBox="0 0 284.99582 128"><defs><style>.cls-1{fill:#fff;}</style></defs><title>WR_ENG_LO_HOR_WHITE_R_NEG</title><path class="cls-1" d="M89,0s35.34845,96.486-32,126c0,0,40.95947-35.71783,20-123C77,3,81.00739,1.13257,89,0ZM67.03186,52.84717A354.50818,354.50818,0,0,0,65,7C43.85229,13.3703,32,21,32,21s-.58417,16.58057-.5108,26.28754c-.0409,42.0252,5.07519,62.61615,9.38257,72.50293,3.46533,7.40008,8.20751,8.181,8.40045,8.20953.19513-.02856,4.93805-.80945,8.41089-8.22375C63.49426,106.43573,66.72668,83.291,67.03186,52.84717ZM17.84979,78.1756c-3.1203-17.77179-2.07452-35.61939-.98413-47.53107L17,29A186.82371,186.82371,0,0,0,1,42a90.89241,90.89241,0,0,0-.992,14.456A102.54591,102.54591,0,0,0,4.15137,84.822a70.8823,70.8823,0,0,0,13.65637,25.42169C28.0752,122.233,38.78937,125.34393,39.23822,125.47827L41,126l-1.2077-1.26135C28.71753,113.68982,21.33569,98.02448,17.84979,78.1756ZM214,49a31.13491,31.13491,0,0,1-7.47552.78888,23.77409,23.77409,0,0,1-2.52906-.09869V31H199V53.00018h13.19385Zm-60.42657,1.53564a10.88873,10.88873,0,0,1-3.56922-8.40673,10.79565,10.79565,0,0,1,3.56922-8.37629,14.35522,14.35522,0,0,1,17.85229,0,10.81168,10.81168,0,0,1,3.57007,8.37629,10.905,10.905,0,0,1-3.57007,8.40673,14.4633,14.4633,0,0,1-17.85229,0Zm2.07836-8.37762A8.24089,8.24089,0,0,0,157.405,47.61a6.16208,6.16208,0,0,0,5.09772,2.30719A6.26146,6.26146,0,0,0,167.62958,47.61a8.42166,8.42166,0,0,0,1.71863-5.452,8.426,8.426,0,0,0-1.71863-5.44928,6.78976,6.78976,0,0,0-10.22455.03137A8.35457,8.35457,0,0,0,155.65179,42.158Zm-15.45153,4.02576L134.987,31h-3.541l-4.8894,15.13965L121.37653,31H116l6.36157,18.07532a10.04128,10.04128,0,0,0,.905,2.152,5.17915,5.17915,0,0,0,2.20117,1.70233c.382.17236,1.27069.47339,2.65009.91046l4.77344-14.30628,3.31134,9.76478A8.6227,8.6227,0,0,0,137.27,51.53754a5.45662,5.45662,0,0,0,2.03882,1.39709q1.74984.61881,2.65735.91187L149.59344,31h-4.76025ZM233.29242,50.429c-2.44946,1.92877-5.981,2.961-10.35059,2.961A37.25466,37.25466,0,0,1,217,53V31a39.15475,39.15475,0,0,1,5.94183-.39,16.47314,16.47314,0,0,1,10.31531,3.09613A10.12565,10.12565,0,0,1,237,42.12891C237,45.58984,235.90564,48.3952,233.29242,50.429Zm-1.68732-8.28785a7.4961,7.4961,0,0,0-2.17254-5.82037,8.5433,8.5433,0,0,0-5.93683-1.8833c-.45752,0-.95368.02-1.494.06232V49.72339c.54028.04364,1.03644.06549,1.494.06549Q231.60555,49.78888,231.6051,42.14117ZM135.33832,81.4798l12.78735,15.52057h-9.71521L125.911,81.27692V97.00037H118V62a66.2884,66.2884,0,0,1,8.746-.457c5.00495,0,9.09436.87671,11.52747,2.34619a9.20665,9.20665,0,0,1,4.68481,8.35284,10.1092,10.1092,0,0,1-1.90374,6.258A9.26032,9.26032,0,0,1,135.33832,81.4798Zm.12012-9.18384c0-3.782-3.17853-5.36-7.63093-5.36a15.31943,15.31943,0,0,0-1.9165.117V77.95837a12.59991,12.59991,0,0,0,1.9165.12867C132.27991,78.087,135.45844,75.88019,135.45844,72.296ZM276.21814,62,267.998,76.10828,259.781,62H251l12.91113,21.35083V96.99994h7.74372V83.35083L284.99969,62ZM251.981,85.2973c.01562.2627.019.53754.019.824,0,4.89306-2.51105,7.35351-6.51862,9.25952-2.90979,1.42169-6.80773,2.02911-11.64032,2.02911A73.54118,73.54118,0,0,1,225,97V62c3.53186-.3161,6.49573-.231,8.89111-.231,4.76258,0,9.282.85669,11.77558,2.33844A7.43042,7.43042,0,0,1,249,70.831c-.14313,4.37922-4.69244,6.49762-5.03436,6.51245C245.28705,77.54846,251.63672,79.5274,251.981,85.2973Zm-19.442-9.72021h2.45355c4.0058.0332,6.63538-1.5055,6.63538-4.41114,0-3.25762-3.00659-4.45855-7.01147-4.45855h-2.07746Zm11.7049,10.9613c0-3.94983-3.41138-5.92316-8.44593-5.92316-.99731,0-2.6441.01819-3.259.0514V92.4588c.61487.03327,2.54132.05322,3.53821.05322C241.8595,92.512,244.244,90.25677,244.244,86.53839ZM172.963,83.00427c0,5.47748-2.82635,8.72559-7.462,8.72559-4.637,0-7.46393-3.35-7.46393-8.97254V62H150V82.95471c0,10.16266,6.12787,15.3418,15.401,15.3418,9.274,0,15.599-5.13,15.599-15.58832V62h-8.037Zm17.905-30.00409-7.86706-9.92938v9.92938H178V31a38.53527,38.53527,0,0,1,5.3606-.297,14.12115,14.12115,0,0,1,7.12652,1.57685,5.84021,5.84021,0,0,1,2.99756,5.26117,5.84958,5.84958,0,0,1-1.20062,3.7738,5.33854,5.33854,0,0,1-3.40686,1.89783L197,53.00018ZM188.2619,37.70062q0-3.33105-4.22-3.3327c-.37109,0-.7149.01184-1.04095.035v6.62354c.326.01953.66986.03046,1.04095.03046Q188.25915,41.057,188.2619,37.70062ZM211.448,91.1377a13.13211,13.13211,0,0,1-5.2099,1.08422,11.75223,11.75223,0,0,1-8.78974-3.47143A13.18841,13.18841,0,0,1,197.47522,70.84a11.8248,11.8248,0,0,1,8.91345-3.54737,18.02962,18.02962,0,0,1,9.60785,2.52045V63.64752a24.91266,24.91266,0,0,0-10.78808-2.00744c-5.4488,0-10.38324,1.46942-13.92878,4.93444A17.53567,17.53567,0,0,0,186,79.53015c0,5.88861,1.72913,10.11176,5.13593,13.19434a21.77038,21.77038,0,0,0,14.68878,5.572c5.20776,0,10.296-1.96015,13.17529-4.83984V79.96808h-7.552Z"/></svg>